<svg width="144" height="144" viewBox="0 0 144 144" fill="none" xmlns="http://www.w3.org/2000/svg">
<rect width="144" height="144" fill="black"/>
<path d="M52.727 61.3977C47.6917 61.3977 43.5954 65.4943 43.5954 70.5296C43.5954 75.5649 47.6916 79.6612 52.727 79.6612C57.7623 79.6612 61.8587 75.565 61.8587 70.5296C61.8586 65.4943 57.7623 61.3977 52.727 61.3977ZM52.727 76.6174C49.3702 76.6174 46.6392 73.8865 46.6392 70.5297C46.6392 67.1728 49.3701 64.4418 52.727 64.4418C56.0836 64.4418 58.8148 67.1727 58.8148 70.5297C58.8148 73.8864 56.0836 76.6174 52.727 76.6174ZM67.9465 52.2622H70.9903V79.2046H67.9465V52.2622ZM122.736 61.8544V79.2045H119.693V64.8982H113.605V79.2045H110.561V64.8982H104.473V79.2045H101.429V61.8544H122.736ZM38.0614 58.6915L33.662 63.0905C32.1691 62.0264 30.3451 61.3979 28.3758 61.3979C23.3408 61.3976 19.2441 65.4941 19.2441 70.5295C19.2441 75.0461 22.5408 78.8051 26.8538 79.5319V82.8343C22.5408 83.5614 19.2441 87.3204 19.2441 91.837C19.2441 96.872 23.3407 100.969 28.3758 100.969C33.411 100.969 37.5074 96.8721 37.5074 91.837C37.5074 87.3204 34.2107 83.5614 29.8976 82.8343V79.5319C34.2107 78.8051 37.5074 75.0462 37.5074 70.5295C37.5074 68.5601 36.8788 66.736 35.8147 65.2432L40.2138 60.8438L38.0614 58.6915ZM34.4635 91.837C34.4635 95.1936 31.7326 97.9248 28.3758 97.9248C25.0192 97.9248 22.2879 95.1935 22.2879 91.837C22.2879 88.4802 25.0192 85.7492 28.3758 85.7492C31.7326 85.7493 34.4635 88.4802 34.4635 91.837ZM28.3758 76.6173C25.0192 76.6173 22.2879 73.8864 22.2879 70.5296C22.2879 67.1727 25.0192 64.4417 28.3758 64.4417C31.7326 64.4417 34.4635 67.1726 34.4635 70.5296C34.4635 73.8864 31.7326 76.6173 28.3758 76.6173ZM86.362 61.3978C83.7731 61.3978 81.4261 62.3452 79.7535 64.0656C78.1267 65.7394 77.2303 68.0348 77.2303 70.5297C77.2303 73.0383 78.1034 75.3312 79.689 76.9854C81.3665 78.736 83.6738 79.6613 86.3619 79.6613C89.2519 79.6613 92.249 78.2548 93.8195 76.1607L91.3843 74.3344C90.3763 75.6788 88.3109 76.6175 86.3619 76.6175C83.1986 76.6175 80.9371 74.7713 80.3978 71.8992H95.189V70.3774C95.189 67.9544 94.3324 65.7119 92.7767 64.0631C91.1548 62.3443 88.8767 61.3978 86.362 61.3978ZM80.4709 68.8554C81.1265 66.1896 83.3668 64.4418 86.362 64.4418C89.2472 64.4418 91.3954 66.194 91.984 68.8554H80.4709Z" fill="url(#paint0_linear_3575_76)"/>
<defs>
<linearGradient id="paint0_linear_3575_76" x1="12.5" y1="66.5" x2="129" y2="77" gradientUnits="userSpaceOnUse">
<stop stop-color="#00C5EE"/>
<stop offset="1" stop-color="#F35B00"/>
</linearGradient>
</defs>
</svg>
